<svg width="11" height="11" viewBox="0 0 11 11" fill="none" xmlns="http://www.w3.org/2000/svg">
<path d="M4.12467 2.29181C4.00312 2.29181 3.88654 2.3401 3.80058 2.42606C3.71463 2.51201 3.66634 2.62859 3.66634 2.75015C3.66634 2.8717 3.71463 2.98828 3.80058 3.07424C3.88654 3.16019 4.00312 3.20848 4.12467 3.20848C4.24623 3.20848 4.36281 3.16019 4.44877 3.07424C4.53472 2.98828 4.58301 2.8717 4.58301 2.75015C4.58301 2.62859 4.53472 2.51201 4.44877 2.42606C4.36281 2.3401 4.24623 2.29181 4.12467 2.29181ZM2.82759 2.29181C2.92228 2.02344 3.09789 1.79105 3.3302 1.62668C3.56251 1.4623 3.84009 1.37402 4.12467 1.37402C4.40926 1.37402 4.68684 1.4623 4.91915 1.62668C5.15146 1.79105 5.32707 2.02344 5.42176 2.29181H8.70801C8.82957 2.29181 8.94614 2.3401 9.0321 2.42606C9.11805 2.51201 9.16634 2.62859 9.16634 2.75015C9.16634 2.8717 9.11805 2.98828 9.0321 3.07424C8.94614 3.16019 8.82957 3.20848 8.70801 3.20848H5.42176C5.32707 3.47685 5.15146 3.70924 4.91915 3.87362C4.68684 4.038 4.40926 4.12627 4.12467 4.12627C3.84009 4.12627 3.56251 4.038 3.3302 3.87362C3.09789 3.70924 2.92228 3.47685 2.82759 3.20848H2.29134C2.16978 3.20848 2.0532 3.16019 1.96725 3.07424C1.8813 2.98828 1.83301 2.8717 1.83301 2.75015C1.83301 2.62859 1.8813 2.51201 1.96725 2.42606C2.0532 2.3401 2.16978 2.29181 2.29134 2.29181H2.82759ZM6.87467 5.04181C6.75312 5.04181 6.63654 5.0901 6.55058 5.17606C6.46463 5.26201 6.41634 5.37859 6.41634 5.50015C6.41634 5.6217 6.46463 5.73828 6.55058 5.82424C6.63654 5.91019 6.75312 5.95848 6.87467 5.95848C6.99623 5.95848 7.11281 5.91019 7.19877 5.82424C7.28472 5.73828 7.33301 5.6217 7.33301 5.50015C7.33301 5.37859 7.28472 5.26201 7.19877 5.17606C7.11281 5.0901 6.99623 5.04181 6.87467 5.04181ZM5.57759 5.04181C5.67228 4.77344 5.84789 4.54105 6.0802 4.37667C6.31251 4.2123 6.59009 4.12402 6.87467 4.12402C7.15926 4.12402 7.43684 4.2123 7.66915 4.37667C7.90146 4.54105 8.07707 4.77344 8.17176 5.04181H8.70801C8.82957 5.04181 8.94614 5.0901 9.0321 5.17606C9.11805 5.26201 9.16634 5.37859 9.16634 5.50015C9.16634 5.6217 9.11805 5.73828 9.0321 5.82424C8.94614 5.91019 8.82957 5.95848 8.70801 5.95848H8.17176C8.07707 6.22685 7.90146 6.45924 7.66915 6.62362C7.43684 6.788 7.15926 6.87627 6.87467 6.87627C6.59009 6.87627 6.31251 6.788 6.0802 6.62362C5.84789 6.45924 5.67228 6.22685 5.57759 5.95848H2.29134C2.16978 5.95848 2.0532 5.91019 1.96725 5.82424C1.8813 5.73828 1.83301 5.6217 1.83301 5.50015C1.83301 5.37859 1.8813 5.26201 1.96725 5.17606C2.0532 5.0901 2.16978 5.04181 2.29134 5.04181H5.57759ZM4.12467 7.79181C4.00312 7.79181 3.88654 7.8401 3.80058 7.92606C3.71463 8.01201 3.66634 8.12859 3.66634 8.25015C3.66634 8.3717 3.71463 8.48828 3.80058 8.57424C3.88654 8.66019 4.00312 8.70848 4.12467 8.70848C4.24623 8.70848 4.36281 8.66019 4.44877 8.57424C4.53472 8.48828 4.58301 8.3717 4.58301 8.25015C4.58301 8.12859 4.53472 8.01201 4.44877 7.92606C4.36281 7.8401 4.24623 7.79181 4.12467 7.79181ZM2.82759 7.79181C2.92228 7.52344 3.09789 7.29105 3.3302 7.12667C3.56251 6.9623 3.84009 6.87402 4.12467 6.87402C4.40926 6.87402 4.68684 6.9623 4.91915 7.12667C5.15146 7.29105 5.32707 7.52344 5.42176 7.79181H8.70801C8.82957 7.79181 8.94614 7.8401 9.0321 7.92606C9.11805 8.01201 9.16634 8.12859 9.16634 8.25015C9.16634 8.3717 9.11805 8.48828 9.0321 8.57424C8.94614 8.66019 8.82957 8.70848 8.70801 8.70848H5.42176C5.32707 8.97685 5.15146 9.20924 4.91915 9.37362C4.68684 9.538 4.40926 9.62627 4.12467 9.62627C3.84009 9.62627 3.56251 9.538 3.3302 9.37362C3.09789 9.20924 2.92228 8.97685 2.82759 8.70848H2.29134C2.16978 8.70848 2.0532 8.66019 1.96725 8.57424C1.8813 8.48828 1.83301 8.3717 1.83301 8.25015C1.83301 8.12859 1.8813 8.01201 1.96725 7.92606C2.0532 7.8401 2.16978 7.79181 2.29134 7.79181H2.82759Z" fill="black"/>
</svg>
